<svg xmlns="http://www.w3.org/2000/svg" xmlns:xlink="http://www.w3.org/1999/xlink" width="500" zoomAndPan="magnify" viewBox="0 0 375 374.999991" height="500" preserveAspectRatio="xMidYMid meet" version="1.0"><defs><g/><clipPath id="2b773d4e54"><path d="M 130.515625 96.433594 L 210 96.433594 L 210 222 L 130.515625 222 Z M 130.515625 96.433594 " clip-rule="nonzero"/></clipPath><clipPath id="cafb7ad480"><path d="M 164 147 L 244 147 L 244 232.183594 L 164 232.183594 Z M 164 147 " clip-rule="nonzero"/></clipPath><clipPath id="fc740d0161"><path d="M 205 157 L 245 157 L 245 198 L 205 198 Z M 205 157 " clip-rule="nonzero"/></clipPath><clipPath id="e409e19b6c"><path d="M 239.199219 153.59375 L 248.691406 192.191406 L 210.09375 201.6875 L 200.597656 163.085938 Z M 239.199219 153.59375 " clip-rule="nonzero"/></clipPath><clipPath id="3de0e5e443"><path d="M 239.199219 153.59375 L 248.691406 192.191406 L 210.09375 201.6875 L 200.597656 163.085938 Z M 239.199219 153.59375 " clip-rule="nonzero"/></clipPath><clipPath id="1ae8a44aa8"><path d="M 218.339844 114 L 225 114 L 225 133 L 218.339844 133 Z M 218.339844 114 " clip-rule="nonzero"/></clipPath><clipPath id="52bc774b91"><path d="M 218.339844 96.4375 L 243 96.4375 L 243 150.4375 L 218.339844 150.4375 Z M 218.339844 96.4375 " clip-rule="nonzero"/></clipPath></defs><g clip-path="url(#2b773d4e54)"><path fill="#1800ad" d="M 198.398438 96.535156 L 141.78125 96.535156 C 135.554688 96.535156 130.457031 101.632812 130.457031 107.859375 L 130.457031 209.765625 C 130.457031 215.988281 135.554688 221.085938 141.78125 221.085938 L 164.726562 221.085938 L 158.914062 215.277344 C 155.171875 211.546875 153.109375 206.5625 153.109375 201.265625 C 153.109375 195.976562 155.171875 191 158.914062 187.257812 C 162.65625 183.515625 167.632812 181.457031 172.925781 181.457031 C 175.910156 181.457031 178.796875 182.109375 181.417969 183.351562 L 181.417969 155.980469 C 181.417969 145.054688 190.308594 136.167969 201.230469 136.167969 L 209.71875 136.167969 L 209.71875 107.859375 C 209.71875 101.632812 204.621094 96.535156 198.398438 96.535156 Z M 175.75 119.183594 L 164.425781 119.183594 C 161.296875 119.183594 158.765625 116.648438 158.765625 113.519531 C 158.765625 110.390625 161.296875 107.859375 164.425781 107.859375 L 175.75 107.859375 C 178.878906 107.859375 181.410156 110.390625 181.410156 113.519531 C 181.410156 116.648438 178.878906 119.183594 175.75 119.183594 Z M 175.75 119.183594 " fill-opacity="1" fill-rule="nonzero"/></g><g clip-path="url(#cafb7ad480)"><path fill="#1800ad" d="M 209.726562 179.882812 L 236.988281 187.730469 C 241.488281 189.039062 244.429688 193.847656 243.523438 198.425781 L 236.765625 232.410156 L 192.0625 232.410156 L 166.921875 207.269531 C 163.601562 203.960938 163.601562 198.578125 166.921875 195.261719 C 170.230469 191.953125 175.617188 191.953125 178.929688 195.261719 L 192.738281 209.074219 L 192.738281 155.980469 C 192.738281 151.292969 196.542969 147.488281 201.230469 147.488281 C 205.917969 147.488281 209.722656 151.292969 209.722656 155.980469 L 209.722656 179.882812 Z M 209.726562 179.882812 " fill-opacity="1" fill-rule="nonzero"/></g><g clip-path="url(#fc740d0161)"><g clip-path="url(#e409e19b6c)"><g clip-path="url(#3de0e5e443)"><path fill="#cb6ce6" d="M 228.207031 193.019531 C 228.390625 192.980469 228.644531 193.066406 228.769531 193.210938 L 231.28125 196.160156 C 231.40625 196.304688 231.648438 196.363281 231.824219 196.289062 L 235.210938 194.636719 C 235.375 194.542969 235.484375 194.3125 235.449219 194.125 L 234.757812 190.238281 C 234.722656 190.050781 234.8125 189.792969 234.957031 189.671875 L 235.789062 188.914062 C 235.925781 188.78125 236.1875 188.71875 236.367188 188.773438 L 240.101562 189.90625 C 240.28125 189.960938 240.519531 189.878906 240.628906 189.722656 L 242.644531 186.464844 C 242.734375 186.296875 242.703125 186.046875 242.574219 185.90625 L 239.910156 183.03125 C 239.777344 182.894531 239.71875 182.628906 239.777344 182.449219 L 240.066406 181.421875 C 240.113281 181.238281 240.300781 181.042969 240.484375 180.992188 L 244.265625 179.917969 C 244.449219 179.863281 244.605469 179.664062 244.617188 179.476562 L 244.59375 175.660156 C 244.582031 175.46875 244.421875 175.273438 244.234375 175.226562 L 240.464844 174.253906 C 240.277344 174.207031 240.109375 174.09375 240.089844 174 L 240.066406 173.914062 C 239.941406 173.394531 239.71875 172.722656 239.71875 172.722656 C 239.660156 172.542969 239.714844 172.277344 239.84375 172.132812 L 242.453125 169.171875 C 242.582031 169.027344 242.605469 168.773438 242.515625 168.609375 L 240.503906 165.449219 C 240.394531 165.296875 240.15625 165.21875 239.972656 165.277344 L 236.300781 166.492188 C 236.121094 166.550781 235.859375 166.496094 235.71875 166.363281 L 234.691406 165.457031 C 234.546875 165.332031 234.449219 165.078125 234.476562 164.890625 L 235.074219 160.984375 C 235.101562 160.796875 234.988281 160.570312 234.820312 160.480469 L 231.535156 158.945312 C 231.359375 158.871094 231.117188 158.933594 230.996094 159.082031 L 228.578125 162.078125 C 228.457031 162.222656 228.203125 162.316406 228.019531 162.28125 L 226.394531 162.027344 C 226.207031 162.003906 225.988281 161.84375 225.910156 161.667969 L 224.304688 158.074219 C 224.226562 157.902344 224.007812 157.773438 223.816406 157.789062 C 223.816406 157.789062 221.414062 157.988281 220.035156 158.328125 L 220.027344 158.332031 C 220.019531 158.332031 219.996094 158.488281 219.976562 158.679688 L 219.554688 162.503906 C 219.535156 162.695312 219.375 162.90625 219.195312 162.976562 L 217.484375 163.75 C 217.3125 163.832031 217.042969 163.816406 216.882812 163.714844 L 213.613281 161.570312 C 213.453125 161.464844 213.199219 161.476562 213.046875 161.59375 L 210.480469 163.835938 C 210.34375 163.96875 210.304688 164.214844 210.386719 164.386719 L 212.109375 167.84375 C 212.195312 168.015625 212.175781 168.28125 212.066406 168.441406 L 210.996094 170.132812 C 210.902344 170.300781 210.667969 170.433594 210.476562 170.433594 L 206.59375 170.398438 C 206.40625 170.398438 206.199219 170.542969 206.136719 170.726562 L 205.230469 173.980469 C 205.1875 174.164062 205.289062 174.398438 205.453125 174.496094 L 208.792969 176.484375 C 208.957031 176.582031 209.085938 176.820312 209.082031 177.007812 L 209.128906 178.996094 C 209.140625 179.1875 209.015625 179.425781 208.855469 179.527344 L 205.59375 181.585938 C 205.433594 181.6875 205.335938 181.921875 205.375 182.109375 C 205.375 182.109375 205.394531 182.207031 205.449219 182.429688 C 205.730469 183.566406 206.433594 185.367188 206.433594 185.367188 C 206.5 185.546875 206.714844 185.6875 206.90625 185.679688 L 210.816406 185.546875 C 211.007812 185.539062 211.246094 185.667969 211.351562 185.828125 L 212.386719 187.332031 C 212.5 187.484375 212.527344 187.75 212.449219 187.921875 L 210.820312 191.410156 C 210.738281 191.582031 210.789062 191.828125 210.929688 191.957031 L 213.675781 194.175781 C 213.828125 194.289062 214.082031 194.292969 214.238281 194.183594 L 217.480469 191.941406 C 217.636719 191.832031 217.910156 191.808594 218.082031 191.886719 L 219.53125 192.488281 C 219.710938 192.554688 219.878906 192.761719 219.902344 192.953125 L 220.421875 196.773438 C 220.445312 196.960938 220.621094 197.140625 220.808594 197.171875 L 224.441406 197.574219 C 224.632812 197.582031 224.847656 197.449219 224.921875 197.269531 L 226.441406 193.621094 C 226.515625 193.445312 226.730469 193.277344 226.917969 193.25 Z M 213.4375 180.410156 C 211.90625 174.1875 215.710938 167.898438 221.933594 166.367188 C 228.160156 164.835938 234.449219 168.640625 235.980469 174.867188 C 237.511719 181.089844 233.707031 187.378906 227.480469 188.910156 C 221.253906 190.441406 214.96875 186.636719 213.4375 180.410156 Z M 213.4375 180.410156 " fill-opacity="1" fill-rule="nonzero"/></g></g></g><g clip-path="url(#1ae8a44aa8)"><path fill="#38b6ff" d="M 224.910156 123.480469 C 224.910156 119.246094 222.003906 115.808594 218.167969 114.75 L 218.167969 132.140625 C 222.003906 131.148438 224.910156 127.710938 224.910156 123.480469 Z M 224.910156 123.480469 " fill-opacity="1" fill-rule="nonzero"/></g><g clip-path="url(#52bc774b91)"><path fill="#38b6ff" d="M 238.335938 121.5625 L 242.960938 119.179688 L 241.507812 113.695312 L 236.285156 113.890625 C 235.753906 112.703125 235.09375 111.644531 234.367188 110.585938 L 237.144531 106.222656 L 233.109375 102.1875 L 228.746094 104.964844 C 227.6875 104.238281 226.566406 103.578125 225.441406 103.046875 L 225.640625 97.890625 L 220.152344 96.4375 L 218.101562 100.402344 L 218.101562 110.1875 C 224.515625 111.246094 229.40625 116.800781 229.40625 123.546875 C 229.40625 130.222656 224.515625 135.777344 218.101562 136.835938 L 218.101562 146.621094 L 220.152344 150.589844 L 225.640625 149.132812 L 225.441406 143.910156 C 226.632812 143.382812 227.6875 142.71875 228.746094 141.992188 L 233.109375 144.769531 L 237.144531 140.738281 L 234.367188 136.371094 C 235.09375 135.316406 235.753906 134.191406 236.285156 133.066406 L 241.441406 133.265625 L 242.898438 127.777344 L 238.269531 125.398438 C 238.402344 124.140625 238.402344 122.882812 238.335938 121.5625 Z M 238.335938 121.5625 " fill-opacity="1" fill-rule="nonzero"/></g><g fill="#f4f2f1" fill-opacity="1"><g transform="translate(86.327286, 259.316028)"><g><path d="M 16.796875 -16 L 16.796875 -12.796875 L 4 -12.796875 L 4 -9.59375 L 16.796875 -9.59375 L 16.796875 -6.40625 L 4 -6.40625 L 4 -3.203125 L 16.796875 -3.203125 L 16.796875 0 L 4 0 C 3.414062 0 2.878906 -0.140625 2.390625 -0.421875 C 1.898438 -0.710938 1.507812 -1.097656 1.21875 -1.578125 C 0.9375 -2.066406 0.796875 -2.609375 0.796875 -3.203125 L 0.796875 -12.796875 C 0.796875 -13.390625 0.9375 -13.925781 1.21875 -14.40625 C 1.507812 -14.894531 1.898438 -15.28125 2.390625 -15.5625 C 2.878906 -15.851562 3.414062 -16 4 -16 Z M 16.796875 -16 "/></g></g></g><g fill="#f4f2f1" fill-opacity="1"><g transform="translate(103.920345, 259.316028)"><g><path d="M 16.796875 -16 L 16.796875 -13.765625 C 16.796875 -13.304688 16.632812 -12.914062 16.3125 -12.59375 L 11.71875 -8 L 16.3125 -3.40625 C 16.632812 -3.082031 16.796875 -2.691406 16.796875 -2.234375 L 16.796875 0 L 13.59375 0 L 13.59375 -1.59375 L 8.796875 -6.40625 L 4 -1.59375 L 4 0 L 0.796875 0 L 0.796875 -2.234375 C 0.796875 -2.691406 0.957031 -3.082031 1.28125 -3.40625 L 5.875 -8 L 1.28125 -12.59375 C 0.957031 -12.914062 0.796875 -13.304688 0.796875 -13.765625 L 0.796875 -16 L 4 -16 L 4 -14.40625 L 8.796875 -9.59375 L 13.59375 -14.40625 L 13.59375 -16 Z M 16.796875 -16 "/></g></g></g><g fill="#f4f2f1" fill-opacity="1"><g transform="translate(121.513404, 259.316028)"><g><path d="M 13.59375 -16 C 14.1875 -16 14.722656 -15.851562 15.203125 -15.5625 C 15.691406 -15.28125 16.078125 -14.894531 16.359375 -14.40625 C 16.648438 -13.925781 16.796875 -13.390625 16.796875 -12.796875 L 16.796875 -9.59375 C 16.796875 -9.007812 16.648438 -8.472656 16.359375 -7.984375 C 16.078125 -7.503906 15.691406 -7.117188 15.203125 -6.828125 C 14.722656 -6.546875 14.1875 -6.40625 13.59375 -6.40625 L 4 -6.40625 L 4 0 L 0.796875 0 L 0.796875 -16 Z M 4 -9.59375 L 13.59375 -9.59375 L 13.59375 -12.796875 L 4 -12.796875 Z M 4 -9.59375 "/></g></g></g><g fill="#f4f2f1" fill-opacity="1"><g transform="translate(139.106462, 259.316028)"><g><path d="M 16.796875 -16 L 16.796875 -12.796875 L 4 -12.796875 L 4 -9.59375 L 16.796875 -9.59375 L 16.796875 -6.40625 L 4 -6.40625 L 4 -3.203125 L 16.796875 -3.203125 L 16.796875 0 L 4 0 C 3.414062 0 2.878906 -0.140625 2.390625 -0.421875 C 1.898438 -0.710938 1.507812 -1.097656 1.21875 -1.578125 C 0.9375 -2.066406 0.796875 -2.609375 0.796875 -3.203125 L 0.796875 -12.796875 C 0.796875 -13.390625 0.9375 -13.925781 1.21875 -14.40625 C 1.507812 -14.894531 1.898438 -15.28125 2.390625 -15.5625 C 2.878906 -15.851562 3.414062 -16 4 -16 Z M 16.796875 -16 "/></g></g></g><g fill="#f4f2f1" fill-opacity="1"><g transform="translate(156.699521, 259.316028)"><g><path d="M 4 0 L 0.796875 0 L 0.796875 -14.40625 C 0.796875 -14.84375 0.953125 -15.21875 1.265625 -15.53125 C 1.578125 -15.84375 1.957031 -16 2.40625 -16 C 2.84375 -16 3.222656 -15.835938 3.546875 -15.515625 L 13.59375 -5.453125 L 13.59375 -16 L 16.796875 -16 L 16.796875 -1.59375 C 16.796875 -1.15625 16.640625 -0.78125 16.328125 -0.46875 C 16.015625 -0.15625 15.640625 0 15.203125 0 C 14.765625 0 14.382812 -0.160156 14.0625 -0.484375 L 4 -10.546875 Z M 4 0 "/></g></g></g><g fill="#f4f2f1" fill-opacity="1"><g transform="translate(174.292579, 259.316028)"><g><path d="M 16.796875 -16 L 16.796875 -12.796875 L 4 -12.796875 L 4 -9.59375 L 13.59375 -9.59375 C 14.1875 -9.59375 14.722656 -9.445312 15.203125 -9.15625 C 15.691406 -8.875 16.078125 -8.488281 16.359375 -8 C 16.648438 -7.519531 16.796875 -6.988281 16.796875 -6.40625 L 16.796875 -3.203125 C 16.796875 -2.609375 16.648438 -2.066406 16.359375 -1.578125 C 16.078125 -1.097656 15.691406 -0.710938 15.203125 -0.421875 C 14.722656 -0.140625 14.1875 0 13.59375 0 L 0.796875 0 L 0.796875 -3.203125 L 13.59375 -3.203125 L 13.59375 -6.40625 L 4 -6.40625 C 3.414062 -6.40625 2.878906 -6.546875 2.390625 -6.828125 C 1.898438 -7.117188 1.507812 -7.503906 1.21875 -7.984375 C 0.9375 -8.472656 0.796875 -9.007812 0.796875 -9.59375 L 0.796875 -12.796875 C 0.796875 -13.390625 0.9375 -13.925781 1.21875 -14.40625 C 1.507812 -14.894531 1.898438 -15.28125 2.390625 -15.5625 C 2.878906 -15.851562 3.414062 -16 4 -16 Z M 16.796875 -16 "/></g></g></g><g fill="#f4f2f1" fill-opacity="1"><g transform="translate(191.885638, 259.316028)"><g><path d="M 16.796875 -16 L 16.796875 -12.796875 L 4 -12.796875 L 4 -9.59375 L 16.796875 -9.59375 L 16.796875 -6.40625 L 4 -6.40625 L 4 -3.203125 L 16.796875 -3.203125 L 16.796875 0 L 4 0 C 3.414062 0 2.878906 -0.140625 2.390625 -0.421875 C 1.898438 -0.710938 1.507812 -1.097656 1.21875 -1.578125 C 0.9375 -2.066406 0.796875 -2.609375 0.796875 -3.203125 L 0.796875 -12.796875 C 0.796875 -13.390625 0.9375 -13.925781 1.21875 -14.40625 C 1.507812 -14.894531 1.898438 -15.28125 2.390625 -15.5625 C 2.878906 -15.851562 3.414062 -16 4 -16 Z M 16.796875 -16 "/></g></g></g><g fill="#f4f2f1" fill-opacity="1"><g transform="translate(209.478697, 259.316028)"><g><path d="M 16.796875 -16 L 16.796875 -12.796875 L 4 -12.796875 L 4 -9.59375 L 13.59375 -9.59375 C 14.1875 -9.59375 14.722656 -9.445312 15.203125 -9.15625 C 15.691406 -8.875 16.078125 -8.488281 16.359375 -8 C 16.648438 -7.519531 16.796875 -6.988281 16.796875 -6.40625 L 16.796875 -3.203125 C 16.796875 -2.609375 16.648438 -2.066406 16.359375 -1.578125 C 16.078125 -1.097656 15.691406 -0.710938 15.203125 -0.421875 C 14.722656 -0.140625 14.1875 0 13.59375 0 L 0.796875 0 L 0.796875 -3.203125 L 13.59375 -3.203125 L 13.59375 -6.40625 L 4 -6.40625 C 3.414062 -6.40625 2.878906 -6.546875 2.390625 -6.828125 C 1.898438 -7.117188 1.507812 -7.503906 1.21875 -7.984375 C 0.9375 -8.472656 0.796875 -9.007812 0.796875 -9.59375 L 0.796875 -12.796875 C 0.796875 -13.390625 0.9375 -13.925781 1.21875 -14.40625 C 1.507812 -14.894531 1.898438 -15.28125 2.390625 -15.5625 C 2.878906 -15.851562 3.414062 -16 4 -16 Z M 16.796875 -16 "/></g></g></g><g fill="#f4f2f1" fill-opacity="1"><g transform="translate(227.071755, 259.316028)"><g/></g></g><g fill="#f4f2f1" fill-opacity="1"><g transform="translate(235.86829, 259.316028)"><g><path d="M 4 -16 L 13.59375 -16 C 14.1875 -16 14.722656 -15.851562 15.203125 -15.5625 C 15.691406 -15.28125 16.078125 -14.894531 16.359375 -14.40625 C 16.648438 -13.925781 16.796875 -13.390625 16.796875 -12.796875 L 16.796875 0 L 13.59375 0 L 13.59375 -6.40625 L 4 -6.40625 L 4 0 L 0.796875 0 L 0.796875 -12.796875 C 0.796875 -13.390625 0.9375 -13.925781 1.21875 -14.40625 C 1.507812 -14.894531 1.898438 -15.28125 2.390625 -15.5625 C 2.878906 -15.851562 3.414062 -16 4 -16 Z M 4 -12.796875 L 4 -9.59375 L 13.59375 -9.59375 L 13.59375 -12.796875 Z M 4 -12.796875 "/></g></g></g><g fill="#f4f2f1" fill-opacity="1"><g transform="translate(253.461349, 259.316028)"><g><path d="M 13.59375 -16 C 14.1875 -16 14.722656 -15.851562 15.203125 -15.5625 C 15.691406 -15.28125 16.078125 -14.894531 16.359375 -14.40625 C 16.648438 -13.925781 16.796875 -13.390625 16.796875 -12.796875 L 16.796875 -9.59375 C 16.796875 -9.007812 16.648438 -8.472656 16.359375 -7.984375 C 16.078125 -7.503906 15.691406 -7.117188 15.203125 -6.828125 C 14.722656 -6.546875 14.1875 -6.40625 13.59375 -6.40625 L 4 -6.40625 L 4 0 L 0.796875 0 L 0.796875 -16 Z M 4 -9.59375 L 13.59375 -9.59375 L 13.59375 -12.796875 L 4 -12.796875 Z M 4 -9.59375 "/></g></g></g><g fill="#f4f2f1" fill-opacity="1"><g transform="translate(271.054407, 259.316028)"><g><path d="M 13.59375 -16 C 14.1875 -16 14.722656 -15.851562 15.203125 -15.5625 C 15.691406 -15.28125 16.078125 -14.894531 16.359375 -14.40625 C 16.648438 -13.925781 16.796875 -13.390625 16.796875 -12.796875 L 16.796875 -9.59375 C 16.796875 -9.007812 16.648438 -8.472656 16.359375 -7.984375 C 16.078125 -7.503906 15.691406 -7.117188 15.203125 -6.828125 C 14.722656 -6.546875 14.1875 -6.40625 13.59375 -6.40625 L 4 -6.40625 L 4 0 L 0.796875 0 L 0.796875 -16 Z M 4 -9.59375 L 13.59375 -9.59375 L 13.59375 -12.796875 L 4 -12.796875 Z M 4 -9.59375 "/></g></g></g><g fill="#f4f2f1" fill-opacity="1"><g transform="translate(87.522599, 276.566027)"><g><path d="M 1.859375 0 L 1.078125 0 L 1.078125 -7.140625 L 2.328125 -7.140625 L 4.484375 -1.09375 L 4.59375 -1.09375 L 6.75 -7.140625 L 7.953125 -7.140625 L 7.953125 0 L 7.15625 0 L 7.15625 -5.828125 L 7.03125 -5.84375 L 4.921875 0 L 4.09375 0 L 1.984375 -5.84375 L 1.859375 -5.828125 Z M 1.859375 0 "/></g></g></g><g fill="#f4f2f1" fill-opacity="1"><g transform="translate(96.557159, 276.566027)"><g><path d="M 2.21875 0.109375 C 1.6875 0.109375 1.269531 -0.03125 0.96875 -0.3125 C 0.675781 -0.59375 0.53125 -0.988281 0.53125 -1.5 C 0.53125 -1.820312 0.59375 -2.09375 0.71875 -2.3125 C 0.851562 -2.53125 1.0625 -2.707031 1.34375 -2.84375 C 1.625 -2.976562 1.984375 -3.085938 2.421875 -3.171875 C 2.816406 -3.234375 3.113281 -3.300781 3.3125 -3.375 C 3.519531 -3.457031 3.65625 -3.550781 3.71875 -3.65625 C 3.789062 -3.757812 3.828125 -3.882812 3.828125 -4.03125 C 3.828125 -4.28125 3.742188 -4.46875 3.578125 -4.59375 C 3.410156 -4.726562 3.144531 -4.796875 2.78125 -4.796875 C 2.425781 -4.796875 2.125 -4.726562 1.875 -4.59375 C 1.625 -4.457031 1.394531 -4.253906 1.1875 -3.984375 L 1.09375 -3.984375 L 0.703125 -4.546875 C 0.929688 -4.828125 1.21875 -5.050781 1.5625 -5.21875 C 1.914062 -5.394531 2.320312 -5.484375 2.78125 -5.484375 C 3.40625 -5.484375 3.867188 -5.34375 4.171875 -5.0625 C 4.472656 -4.789062 4.625 -4.410156 4.625 -3.921875 L 4.625 -1.0625 C 4.625 -0.757812 4.753906 -0.609375 5.015625 -0.609375 C 5.097656 -0.609375 5.175781 -0.625 5.25 -0.65625 L 5.328125 -0.640625 L 5.421875 -0.078125 C 5.359375 -0.046875 5.28125 -0.0195312 5.1875 0 C 5.09375 0.03125 4.992188 0.046875 4.890625 0.046875 C 4.585938 0.046875 4.359375 -0.0195312 4.203125 -0.15625 C 4.054688 -0.289062 3.960938 -0.484375 3.921875 -0.734375 L 3.828125 -0.75 C 3.671875 -0.457031 3.460938 -0.238281 3.203125 -0.09375 C 2.941406 0.0390625 2.613281 0.109375 2.21875 0.109375 Z M 2.390625 -0.53125 C 2.691406 -0.53125 2.953125 -0.597656 3.171875 -0.734375 C 3.390625 -0.878906 3.554688 -1.078125 3.671875 -1.328125 C 3.796875 -1.578125 3.859375 -1.863281 3.859375 -2.1875 L 3.859375 -2.875 L 3.765625 -2.890625 C 3.640625 -2.804688 3.488281 -2.734375 3.3125 -2.671875 C 3.144531 -2.617188 2.910156 -2.570312 2.609375 -2.53125 C 2.296875 -2.488281 2.046875 -2.421875 1.859375 -2.328125 C 1.671875 -2.242188 1.535156 -2.132812 1.453125 -2 C 1.378906 -1.863281 1.34375 -1.695312 1.34375 -1.5 C 1.34375 -1.1875 1.4375 -0.945312 1.625 -0.78125 C 1.8125 -0.613281 2.066406 -0.53125 2.390625 -0.53125 Z M 2.390625 -0.53125 "/></g></g></g><g fill="#f4f2f1" fill-opacity="1"><g transform="translate(102.126278, 276.566027)"><g><path d="M 0.9375 0 L 0.9375 -5.390625 L 1.6875 -5.390625 L 1.6875 -4.546875 L 1.796875 -4.515625 C 1.972656 -4.828125 2.203125 -5.066406 2.484375 -5.234375 C 2.765625 -5.398438 3.101562 -5.484375 3.5 -5.484375 C 4.144531 -5.484375 4.613281 -5.316406 4.90625 -4.984375 C 5.195312 -4.660156 5.34375 -4.15625 5.34375 -3.46875 L 5.34375 0 L 4.546875 0 L 4.546875 -3.453125 C 4.546875 -3.773438 4.503906 -4.035156 4.421875 -4.234375 C 4.335938 -4.429688 4.207031 -4.570312 4.03125 -4.65625 C 3.863281 -4.75 3.640625 -4.796875 3.359375 -4.796875 C 2.867188 -4.796875 2.472656 -4.632812 2.171875 -4.3125 C 1.878906 -3.988281 1.734375 -3.472656 1.734375 -2.765625 L 1.734375 0 Z M 0.9375 0 "/></g></g></g><g fill="#f4f2f1" fill-opacity="1"><g transform="translate(108.325027, 276.566027)"><g><path d="M 2.21875 0.109375 C 1.6875 0.109375 1.269531 -0.03125 0.96875 -0.3125 C 0.675781 -0.59375 0.53125 -0.988281 0.53125 -1.5 C 0.53125 -1.820312 0.59375 -2.09375 0.71875 -2.3125 C 0.851562 -2.53125 1.0625 -2.707031 1.34375 -2.84375 C 1.625 -2.976562 1.984375 -3.085938 2.421875 -3.171875 C 2.816406 -3.234375 3.113281 -3.300781 3.3125 -3.375 C 3.519531 -3.457031 3.65625 -3.550781 3.71875 -3.65625 C 3.789062 -3.757812 3.828125 -3.882812 3.828125 -4.03125 C 3.828125 -4.28125 3.742188 -4.46875 3.578125 -4.59375 C 3.410156 -4.726562 3.144531 -4.796875 2.78125 -4.796875 C 2.425781 -4.796875 2.125 -4.726562 1.875 -4.59375 C 1.625 -4.457031 1.394531 -4.253906 1.1875 -3.984375 L 1.09375 -3.984375 L 0.703125 -4.546875 C 0.929688 -4.828125 1.21875 -5.050781 1.5625 -5.21875 C 1.914062 -5.394531 2.320312 -5.484375 2.78125 -5.484375 C 3.40625 -5.484375 3.867188 -5.34375 4.171875 -5.0625 C 4.472656 -4.789062 4.625 -4.410156 4.625 -3.921875 L 4.625 -1.0625 C 4.625 -0.757812 4.753906 -0.609375 5.015625 -0.609375 C 5.097656 -0.609375 5.175781 -0.625 5.25 -0.65625 L 5.328125 -0.640625 L 5.421875 -0.078125 C 5.359375 -0.046875 5.28125 -0.0195312 5.1875 0 C 5.09375 0.03125 4.992188 0.046875 4.890625 0.046875 C 4.585938 0.046875 4.359375 -0.0195312 4.203125 -0.15625 C 4.054688 -0.289062 3.960938 -0.484375 3.921875 -0.734375 L 3.828125 -0.75 C 3.671875 -0.457031 3.460938 -0.238281 3.203125 -0.09375 C 2.941406 0.0390625 2.613281 0.109375 2.21875 0.109375 Z M 2.390625 -0.53125 C 2.691406 -0.53125 2.953125 -0.597656 3.171875 -0.734375 C 3.390625 -0.878906 3.554688 -1.078125 3.671875 -1.328125 C 3.796875 -1.578125 3.859375 -1.863281 3.859375 -2.1875 L 3.859375 -2.875 L 3.765625 -2.890625 C 3.640625 -2.804688 3.488281 -2.734375 3.3125 -2.671875 C 3.144531 -2.617188 2.910156 -2.570312 2.609375 -2.53125 C 2.296875 -2.488281 2.046875 -2.421875 1.859375 -2.328125 C 1.671875 -2.242188 1.535156 -2.132812 1.453125 -2 C 1.378906 -1.863281 1.34375 -1.695312 1.34375 -1.5 C 1.34375 -1.1875 1.4375 -0.945312 1.625 -0.78125 C 1.8125 -0.613281 2.066406 -0.53125 2.390625 -0.53125 Z M 2.390625 -0.53125 "/></g></g></g><g fill="#f4f2f1" fill-opacity="1"><g transform="translate(113.894145, 276.566027)"><g><path d="M 2.78125 2.28125 C 1.925781 2.28125 1.300781 2.140625 0.90625 1.859375 C 0.519531 1.578125 0.328125 1.203125 0.328125 0.734375 C 0.328125 0.429688 0.414062 0.1875 0.59375 0 C 0.78125 -0.175781 1.046875 -0.300781 1.390625 -0.375 L 1.390625 -0.484375 C 1.222656 -0.578125 1.097656 -0.6875 1.015625 -0.8125 C 0.941406 -0.9375 0.90625 -1.085938 0.90625 -1.265625 C 0.90625 -1.472656 0.96875 -1.640625 1.09375 -1.765625 C 1.226562 -1.898438 1.425781 -2.003906 1.6875 -2.078125 L 1.6875 -2.171875 C 1.101562 -2.484375 0.8125 -2.988281 0.8125 -3.6875 C 0.8125 -4.03125 0.890625 -4.335938 1.046875 -4.609375 C 1.203125 -4.890625 1.425781 -5.101562 1.71875 -5.25 C 2.019531 -5.40625 2.367188 -5.484375 2.765625 -5.484375 C 3.210938 -5.484375 3.585938 -5.382812 3.890625 -5.1875 C 4.003906 -5.3125 4.085938 -5.445312 4.140625 -5.59375 C 4.203125 -5.738281 4.242188 -5.90625 4.265625 -6.09375 L 4.359375 -6.15625 L 5.015625 -6 C 4.984375 -5.726562 4.898438 -5.492188 4.765625 -5.296875 C 4.640625 -5.109375 4.457031 -4.953125 4.21875 -4.828125 L 4.21875 -4.734375 C 4.382812 -4.597656 4.507812 -4.4375 4.59375 -4.25 C 4.675781 -4.0625 4.71875 -3.847656 4.71875 -3.609375 C 4.71875 -3.265625 4.632812 -2.957031 4.46875 -2.6875 C 4.3125 -2.425781 4.082031 -2.21875 3.78125 -2.0625 C 3.488281 -1.90625 3.148438 -1.828125 2.765625 -1.828125 C 2.722656 -1.828125 2.640625 -1.832031 2.515625 -1.84375 C 2.390625 -1.84375 2.296875 -1.84375 2.234375 -1.84375 C 2.066406 -1.84375 1.929688 -1.796875 1.828125 -1.703125 C 1.722656 -1.617188 1.671875 -1.507812 1.671875 -1.375 C 1.671875 -1.207031 1.722656 -1.082031 1.828125 -1 C 1.941406 -0.925781 2.125 -0.882812 2.375 -0.875 L 3.65625 -0.828125 C 4.207031 -0.804688 4.613281 -0.675781 4.875 -0.4375 C 5.144531 -0.207031 5.28125 0.125 5.28125 0.5625 C 5.28125 0.882812 5.191406 1.175781 5.015625 1.4375 C 4.835938 1.695312 4.5625 1.898438 4.1875 2.046875 C 3.820312 2.203125 3.351562 2.28125 2.78125 2.28125 Z M 2.765625 -2.515625 C 3.140625 -2.515625 3.429688 -2.613281 3.640625 -2.8125 C 3.847656 -3.007812 3.953125 -3.285156 3.953125 -3.640625 C 3.953125 -4.015625 3.847656 -4.300781 3.640625 -4.5 C 3.441406 -4.707031 3.148438 -4.8125 2.765625 -4.8125 C 2.378906 -4.8125 2.082031 -4.707031 1.875 -4.5 C 1.675781 -4.300781 1.578125 -4.015625 1.578125 -3.640625 C 1.578125 -3.273438 1.675781 -2.992188 1.875 -2.796875 C 2.082031 -2.609375 2.378906 -2.515625 2.765625 -2.515625 Z M 2.78125 1.609375 C 3.175781 1.609375 3.5 1.5625 3.75 1.46875 C 4 1.382812 4.175781 1.269531 4.28125 1.125 C 4.394531 0.976562 4.453125 0.816406 4.453125 0.640625 C 4.453125 0.472656 4.421875 0.34375 4.359375 0.25 C 4.304688 0.15625 4.210938 0.0820312 4.078125 0.03125 C 3.941406 -0.0195312 3.757812 -0.0507812 3.53125 -0.0625 L 2.328125 -0.125 L 2.15625 -0.125 C 1.476562 -0.113281 1.140625 0.148438 1.140625 0.671875 C 1.140625 1.296875 1.6875 1.609375 2.78125 1.609375 Z M 2.78125 1.609375 "/></g></g></g><g fill="#f4f2f1" fill-opacity="1"><g transform="translate(119.409567, 276.566027)"><g><path d="M 5.125 -2.515625 L 1.4375 -2.515625 C 1.457031 -1.859375 1.613281 -1.375 1.90625 -1.0625 C 2.195312 -0.757812 2.59375 -0.609375 3.09375 -0.609375 C 3.476562 -0.609375 3.785156 -0.675781 4.015625 -0.8125 C 4.253906 -0.945312 4.441406 -1.160156 4.578125 -1.453125 L 4.6875 -1.453125 L 5.203125 -1.15625 C 5.046875 -0.757812 4.796875 -0.445312 4.453125 -0.21875 C 4.109375 0 3.65625 0.109375 3.09375 0.109375 C 2.570312 0.109375 2.125 0.00390625 1.75 -0.203125 C 1.382812 -0.410156 1.097656 -0.722656 0.890625 -1.140625 C 0.691406 -1.554688 0.59375 -2.070312 0.59375 -2.6875 C 0.59375 -3.300781 0.695312 -3.816406 0.90625 -4.234375 C 1.125 -4.660156 1.414062 -4.972656 1.78125 -5.171875 C 2.15625 -5.378906 2.578125 -5.484375 3.046875 -5.484375 C 3.742188 -5.484375 4.285156 -5.289062 4.671875 -4.90625 C 5.054688 -4.519531 5.25 -3.941406 5.25 -3.171875 C 5.25 -2.867188 5.242188 -2.664062 5.234375 -2.5625 Z M 4.46875 -3.171875 C 4.457031 -3.742188 4.328125 -4.160156 4.078125 -4.421875 C 3.835938 -4.679688 3.492188 -4.8125 3.046875 -4.8125 C 2.578125 -4.8125 2.207031 -4.679688 1.9375 -4.421875 C 1.664062 -4.160156 1.503906 -3.742188 1.453125 -3.171875 Z M 4.46875 -3.171875 "/></g></g></g><g fill="#f4f2f1" fill-opacity="1"><g transform="translate(125.149511, 276.566027)"><g/></g></g><g fill="#f4f2f1" fill-opacity="1"><g transform="translate(127.599726, 276.566027)"><g><path d="M 1.078125 2.28125 C 0.898438 2.28125 0.726562 2.265625 0.5625 2.234375 C 0.40625 2.203125 0.269531 2.160156 0.15625 2.109375 L 0.3125 1.484375 L 0.390625 1.453125 C 0.472656 1.492188 0.570312 1.523438 0.6875 1.546875 C 0.800781 1.578125 0.921875 1.59375 1.046875 1.59375 C 1.265625 1.59375 1.445312 1.5625 1.59375 1.5 C 1.738281 1.445312 1.859375 1.351562 1.953125 1.21875 C 2.054688 1.082031 2.15625 0.894531 2.25 0.65625 L 2.4375 0.125 L 0.28125 -5.390625 L 1.140625 -5.390625 L 2.828125 -0.984375 L 2.921875 -0.984375 L 4.5625 -5.390625 L 5.375 -5.390625 L 2.96875 0.84375 C 2.832031 1.1875 2.675781 1.460938 2.5 1.671875 C 2.332031 1.890625 2.132812 2.046875 1.90625 2.140625 C 1.675781 2.234375 1.398438 2.28125 1.078125 2.28125 Z M 1.078125 2.28125 "/></g></g></g><g fill="#f4f2f1" fill-opacity="1"><g transform="translate(133.276224, 276.566027)"><g><path d="M 3.09375 0.109375 C 2.582031 0.109375 2.140625 0 1.765625 -0.21875 C 1.390625 -0.4375 1.097656 -0.753906 0.890625 -1.171875 C 0.691406 -1.585938 0.59375 -2.09375 0.59375 -2.6875 C 0.59375 -3.28125 0.691406 -3.785156 0.890625 -4.203125 C 1.097656 -4.628906 1.390625 -4.945312 1.765625 -5.15625 C 2.140625 -5.375 2.582031 -5.484375 3.09375 -5.484375 C 3.601562 -5.484375 4.046875 -5.375 4.421875 -5.15625 C 4.796875 -4.945312 5.082031 -4.628906 5.28125 -4.203125 C 5.488281 -3.785156 5.59375 -3.28125 5.59375 -2.6875 C 5.59375 -2.09375 5.488281 -1.585938 5.28125 -1.171875 C 5.082031 -0.753906 4.796875 -0.4375 4.421875 -0.21875 C 4.046875 0 3.601562 0.109375 3.09375 0.109375 Z M 3.09375 -0.609375 C 3.625 -0.609375 4.03125 -0.773438 4.3125 -1.109375 C 4.601562 -1.453125 4.75 -1.976562 4.75 -2.6875 C 4.75 -3.40625 4.601562 -3.929688 4.3125 -4.265625 C 4.03125 -4.609375 3.625 -4.78125 3.09375 -4.78125 C 2.550781 -4.78125 2.132812 -4.609375 1.84375 -4.265625 C 1.5625 -3.921875 1.421875 -3.394531 1.421875 -2.6875 C 1.421875 -1.976562 1.5625 -1.453125 1.84375 -1.109375 C 2.132812 -0.773438 2.550781 -0.609375 3.09375 -0.609375 Z M 3.09375 -0.609375 "/></g></g></g><g fill="#f4f2f1" fill-opacity="1"><g transform="translate(139.455449, 276.566027)"><g><path d="M 2.65625 0.109375 C 2.050781 0.109375 1.597656 -0.0507812 1.296875 -0.375 C 1.003906 -0.695312 0.859375 -1.171875 0.859375 -1.796875 L 0.859375 -5.390625 L 1.65625 -5.390625 L 1.65625 -1.8125 C 1.65625 -1 2.035156 -0.59375 2.796875 -0.59375 C 3.285156 -0.59375 3.671875 -0.75 3.953125 -1.0625 C 4.242188 -1.382812 4.390625 -1.90625 4.390625 -2.625 L 4.390625 -5.390625 L 5.1875 -5.390625 L 5.1875 0 L 4.421875 0 L 4.421875 -0.84375 L 4.328125 -0.875 C 4.140625 -0.539062 3.914062 -0.289062 3.65625 -0.125 C 3.394531 0.03125 3.0625 0.109375 2.65625 0.109375 Z M 2.65625 0.109375 "/></g></g></g><g fill="#f4f2f1" fill-opacity="1"><g transform="translate(145.571229, 276.566027)"><g><path d="M 0.9375 0 L 0.9375 -5.390625 L 1.6875 -5.390625 L 1.6875 -4.546875 L 1.796875 -4.515625 C 2.046875 -5.128906 2.519531 -5.4375 3.21875 -5.4375 C 3.582031 -5.4375 3.851562 -5.367188 4.03125 -5.234375 L 3.828125 -4.5625 L 3.734375 -4.546875 C 3.535156 -4.640625 3.316406 -4.6875 3.078125 -4.6875 C 2.640625 -4.6875 2.304688 -4.523438 2.078125 -4.203125 C 1.847656 -3.878906 1.734375 -3.359375 1.734375 -2.640625 L 1.734375 0 Z M 0.9375 0 "/></g></g></g><g fill="#f4f2f1" fill-opacity="1"><g transform="translate(149.72976, 276.566027)"><g/></g></g><g fill="#f4f2f1" fill-opacity="1"><g transform="translate(152.179974, 276.566027)"><g><path d="M 5.125 -2.515625 L 1.4375 -2.515625 C 1.457031 -1.859375 1.613281 -1.375 1.90625 -1.0625 C 2.195312 -0.757812 2.59375 -0.609375 3.09375 -0.609375 C 3.476562 -0.609375 3.785156 -0.675781 4.015625 -0.8125 C 4.253906 -0.945312 4.441406 -1.160156 4.578125 -1.453125 L 4.6875 -1.453125 L 5.203125 -1.15625 C 5.046875 -0.757812 4.796875 -0.445312 4.453125 -0.21875 C 4.109375 0 3.65625 0.109375 3.09375 0.109375 C 2.570312 0.109375 2.125 0.00390625 1.75 -0.203125 C 1.382812 -0.410156 1.097656 -0.722656 0.890625 -1.140625 C 0.691406 -1.554688 0.59375 -2.070312 0.59375 -2.6875 C 0.59375 -3.300781 0.695312 -3.816406 0.90625 -4.234375 C 1.125 -4.660156 1.414062 -4.972656 1.78125 -5.171875 C 2.15625 -5.378906 2.578125 -5.484375 3.046875 -5.484375 C 3.742188 -5.484375 4.285156 -5.289062 4.671875 -4.90625 C 5.054688 -4.519531 5.25 -3.941406 5.25 -3.171875 C 5.25 -2.867188 5.242188 -2.664062 5.234375 -2.5625 Z M 4.46875 -3.171875 C 4.457031 -3.742188 4.328125 -4.160156 4.078125 -4.421875 C 3.835938 -4.679688 3.492188 -4.8125 3.046875 -4.8125 C 2.578125 -4.8125 2.207031 -4.679688 1.9375 -4.421875 C 1.664062 -4.160156 1.503906 -3.742188 1.453125 -3.171875 Z M 4.46875 -3.171875 "/></g></g></g><g fill="#f4f2f1" fill-opacity="1"><g transform="translate(157.919918, 276.566027)"><g><path d="M 1.125 0 L 0.25 0 L 1.90625 -2.796875 L 0.328125 -5.390625 L 1.21875 -5.390625 L 2.46875 -3.3125 L 2.578125 -3.3125 L 3.828125 -5.390625 L 4.6875 -5.390625 L 3.15625 -2.796875 L 4.78125 0 L 3.875 0 L 2.546875 -2.28125 L 2.4375 -2.28125 Z M 1.125 0 "/></g></g></g><g fill="#f4f2f1" fill-opacity="1"><g transform="translate(162.937488, 276.566027)"><g><path d="M 0.9375 2.1875 L 0.9375 -5.390625 L 1.734375 -5.390625 L 1.734375 -4.578125 L 1.84375 -4.5625 C 2.238281 -5.175781 2.820312 -5.484375 3.59375 -5.484375 C 4.039062 -5.484375 4.429688 -5.378906 4.765625 -5.171875 C 5.109375 -4.972656 5.367188 -4.664062 5.546875 -4.25 C 5.734375 -3.832031 5.828125 -3.3125 5.828125 -2.6875 C 5.828125 -2.070312 5.726562 -1.554688 5.53125 -1.140625 C 5.34375 -0.722656 5.078125 -0.410156 4.734375 -0.203125 C 4.390625 0.00390625 3.992188 0.109375 3.546875 0.109375 C 3.179688 0.109375 2.851562 0.046875 2.5625 -0.078125 C 2.28125 -0.210938 2.039062 -0.425781 1.84375 -0.71875 L 1.734375 -0.6875 L 1.734375 2.1875 Z M 3.359375 -0.609375 C 4.453125 -0.609375 5 -1.300781 5 -2.6875 C 5 -4.082031 4.453125 -4.78125 3.359375 -4.78125 C 3.046875 -4.78125 2.765625 -4.707031 2.515625 -4.5625 C 2.273438 -4.414062 2.082031 -4.1875 1.9375 -3.875 C 1.800781 -3.5625 1.734375 -3.164062 1.734375 -2.6875 C 1.734375 -2.21875 1.800781 -1.828125 1.9375 -1.515625 C 2.082031 -1.203125 2.273438 -0.972656 2.515625 -0.828125 C 2.765625 -0.679688 3.046875 -0.609375 3.359375 -0.609375 Z M 3.359375 -0.609375 "/></g></g></g><g fill="#f4f2f1" fill-opacity="1"><g transform="translate(169.360759, 276.566027)"><g><path d="M 5.125 -2.515625 L 1.4375 -2.515625 C 1.457031 -1.859375 1.613281 -1.375 1.90625 -1.0625 C 2.195312 -0.757812 2.59375 -0.609375 3.09375 -0.609375 C 3.476562 -0.609375 3.785156 -0.675781 4.015625 -0.8125 C 4.253906 -0.945312 4.441406 -1.160156 4.578125 -1.453125 L 4.6875 -1.453125 L 5.203125 -1.15625 C 5.046875 -0.757812 4.796875 -0.445312 4.453125 -0.21875 C 4.109375 0 3.65625 0.109375 3.09375 0.109375 C 2.570312 0.109375 2.125 0.00390625 1.75 -0.203125 C 1.382812 -0.410156 1.097656 -0.722656 0.890625 -1.140625 C 0.691406 -1.554688 0.59375 -2.070312 0.59375 -2.6875 C 0.59375 -3.300781 0.695312 -3.816406 0.90625 -4.234375 C 1.125 -4.660156 1.414062 -4.972656 1.78125 -5.171875 C 2.15625 -5.378906 2.578125 -5.484375 3.046875 -5.484375 C 3.742188 -5.484375 4.285156 -5.289062 4.671875 -4.90625 C 5.054688 -4.519531 5.25 -3.941406 5.25 -3.171875 C 5.25 -2.867188 5.242188 -2.664062 5.234375 -2.5625 Z M 4.46875 -3.171875 C 4.457031 -3.742188 4.328125 -4.160156 4.078125 -4.421875 C 3.835938 -4.679688 3.492188 -4.8125 3.046875 -4.8125 C 2.578125 -4.8125 2.207031 -4.679688 1.9375 -4.421875 C 1.664062 -4.160156 1.503906 -3.742188 1.453125 -3.171875 Z M 4.46875 -3.171875 "/></g></g></g><g fill="#f4f2f1" fill-opacity="1"><g transform="translate(175.100703, 276.566027)"><g><path d="M 0.9375 0 L 0.9375 -5.390625 L 1.6875 -5.390625 L 1.6875 -4.546875 L 1.796875 -4.515625 C 1.972656 -4.828125 2.203125 -5.066406 2.484375 -5.234375 C 2.765625 -5.398438 3.101562 -5.484375 3.5 -5.484375 C 4.144531 -5.484375 4.613281 -5.316406 4.90625 -4.984375 C 5.195312 -4.660156 5.34375 -4.15625 5.34375 -3.46875 L 5.34375 0 L 4.546875 0 L 4.546875 -3.453125 C 4.546875 -3.773438 4.503906 -4.035156 4.421875 -4.234375 C 4.335938 -4.429688 4.207031 -4.570312 4.03125 -4.65625 C 3.863281 -4.75 3.640625 -4.796875 3.359375 -4.796875 C 2.867188 -4.796875 2.472656 -4.632812 2.171875 -4.3125 C 1.878906 -3.988281 1.734375 -3.472656 1.734375 -2.765625 L 1.734375 0 Z M 0.9375 0 "/></g></g></g><g fill="#f4f2f1" fill-opacity="1"><g transform="translate(181.299452, 276.566027)"><g><path d="M 2.453125 0.109375 C 2.117188 0.109375 1.804688 0.0625 1.515625 -0.03125 C 1.222656 -0.125 0.976562 -0.25 0.78125 -0.40625 C 0.582031 -0.5625 0.441406 -0.734375 0.359375 -0.921875 L 0.828125 -1.421875 L 0.9375 -1.421875 C 1.113281 -1.148438 1.320312 -0.945312 1.5625 -0.8125 C 1.8125 -0.675781 2.109375 -0.609375 2.453125 -0.609375 C 2.847656 -0.609375 3.148438 -0.6875 3.359375 -0.84375 C 3.566406 -1 3.671875 -1.210938 3.671875 -1.484375 C 3.671875 -1.703125 3.609375 -1.878906 3.484375 -2.015625 C 3.359375 -2.148438 3.15625 -2.253906 2.875 -2.328125 L 1.96875 -2.546875 C 1.476562 -2.660156 1.125 -2.84375 0.90625 -3.09375 C 0.6875 -3.351562 0.578125 -3.671875 0.578125 -4.046875 C 0.578125 -4.335938 0.648438 -4.59375 0.796875 -4.8125 C 0.941406 -5.03125 1.15625 -5.195312 1.4375 -5.3125 C 1.71875 -5.425781 2.054688 -5.484375 2.453125 -5.484375 C 2.941406 -5.484375 3.328125 -5.414062 3.609375 -5.28125 C 3.898438 -5.144531 4.125 -4.953125 4.28125 -4.703125 L 3.828125 -4.265625 L 3.734375 -4.265625 C 3.566406 -4.460938 3.378906 -4.601562 3.171875 -4.6875 C 2.960938 -4.78125 2.722656 -4.828125 2.453125 -4.828125 C 2.097656 -4.828125 1.820312 -4.757812 1.625 -4.625 C 1.4375 -4.5 1.34375 -4.316406 1.34375 -4.078125 C 1.34375 -3.859375 1.410156 -3.679688 1.546875 -3.546875 C 1.679688 -3.421875 1.914062 -3.316406 2.25 -3.234375 L 3.140625 -3.015625 C 3.609375 -2.910156 3.945312 -2.726562 4.15625 -2.46875 C 4.363281 -2.207031 4.46875 -1.882812 4.46875 -1.5 C 4.46875 -1.1875 4.390625 -0.90625 4.234375 -0.65625 C 4.085938 -0.414062 3.863281 -0.226562 3.5625 -0.09375 C 3.257812 0.0390625 2.890625 0.109375 2.453125 0.109375 Z M 2.453125 0.109375 "/></g></g></g><g fill="#f4f2f1" fill-opacity="1"><g transform="translate(186.277975, 276.566027)"><g><path d="M 5.125 -2.515625 L 1.4375 -2.515625 C 1.457031 -1.859375 1.613281 -1.375 1.90625 -1.0625 C 2.195312 -0.757812 2.59375 -0.609375 3.09375 -0.609375 C 3.476562 -0.609375 3.785156 -0.675781 4.015625 -0.8125 C 4.253906 -0.945312 4.441406 -1.160156 4.578125 -1.453125 L 4.6875 -1.453125 L 5.203125 -1.15625 C 5.046875 -0.757812 4.796875 -0.445312 4.453125 -0.21875 C 4.109375 0 3.65625 0.109375 3.09375 0.109375 C 2.570312 0.109375 2.125 0.00390625 1.75 -0.203125 C 1.382812 -0.410156 1.097656 -0.722656 0.890625 -1.140625 C 0.691406 -1.554688 0.59375 -2.070312 0.59375 -2.6875 C 0.59375 -3.300781 0.695312 -3.816406 0.90625 -4.234375 C 1.125 -4.660156 1.414062 -4.972656 1.78125 -5.171875 C 2.15625 -5.378906 2.578125 -5.484375 3.046875 -5.484375 C 3.742188 -5.484375 4.285156 -5.289062 4.671875 -4.90625 C 5.054688 -4.519531 5.25 -3.941406 5.25 -3.171875 C 5.25 -2.867188 5.242188 -2.664062 5.234375 -2.5625 Z M 4.46875 -3.171875 C 4.457031 -3.742188 4.328125 -4.160156 4.078125 -4.421875 C 3.835938 -4.679688 3.492188 -4.8125 3.046875 -4.8125 C 2.578125 -4.8125 2.207031 -4.679688 1.9375 -4.421875 C 1.664062 -4.160156 1.503906 -3.742188 1.453125 -3.171875 Z M 4.46875 -3.171875 "/></g></g></g><g fill="#f4f2f1" fill-opacity="1"><g transform="translate(192.017919, 276.566027)"><g><path d="M 2.453125 0.109375 C 2.117188 0.109375 1.804688 0.0625 1.515625 -0.03125 C 1.222656 -0.125 0.976562 -0.25 0.78125 -0.40625 C 0.582031 -0.5625 0.441406 -0.734375 0.359375 -0.921875 L 0.828125 -1.421875 L 0.9375 -1.421875 C 1.113281 -1.148438 1.320312 -0.945312 1.5625 -0.8125 C 1.8125 -0.675781 2.109375 -0.609375 2.453125 -0.609375 C 2.847656 -0.609375 3.148438 -0.6875 3.359375 -0.84375 C 3.566406 -1 3.671875 -1.210938 3.671875 -1.484375 C 3.671875 -1.703125 3.609375 -1.878906 3.484375 -2.015625 C 3.359375 -2.148438 3.15625 -2.253906 2.875 -2.328125 L 1.96875 -2.546875 C 1.476562 -2.660156 1.125 -2.84375 0.90625 -3.09375 C 0.6875 -3.351562 0.578125 -3.671875 0.578125 -4.046875 C 0.578125 -4.335938 0.648438 -4.59375 0.796875 -4.8125 C 0.941406 -5.03125 1.15625 -5.195312 1.4375 -5.3125 C 1.71875 -5.425781 2.054688 -5.484375 2.453125 -5.484375 C 2.941406 -5.484375 3.328125 -5.414062 3.609375 -5.28125 C 3.898438 -5.144531 4.125 -4.953125 4.28125 -4.703125 L 3.828125 -4.265625 L 3.734375 -4.265625 C 3.566406 -4.460938 3.378906 -4.601562 3.171875 -4.6875 C 2.960938 -4.78125 2.722656 -4.828125 2.453125 -4.828125 C 2.097656 -4.828125 1.820312 -4.757812 1.625 -4.625 C 1.4375 -4.5 1.34375 -4.316406 1.34375 -4.078125 C 1.34375 -3.859375 1.410156 -3.679688 1.546875 -3.546875 C 1.679688 -3.421875 1.914062 -3.316406 2.25 -3.234375 L 3.140625 -3.015625 C 3.609375 -2.910156 3.945312 -2.726562 4.15625 -2.46875 C 4.363281 -2.207031 4.46875 -1.882812 4.46875 -1.5 C 4.46875 -1.1875 4.390625 -0.90625 4.234375 -0.65625 C 4.085938 -0.414062 3.863281 -0.226562 3.5625 -0.09375 C 3.257812 0.0390625 2.890625 0.109375 2.453125 0.109375 Z M 2.453125 0.109375 "/></g></g></g><g fill="#f4f2f1" fill-opacity="1"><g transform="translate(196.996442, 276.566027)"><g/></g></g><g fill="#f4f2f1" fill-opacity="1"><g transform="translate(199.446656, 276.566027)"><g><path d="M 0.3125 1.484375 C 0.59375 1.304688 0.828125 1.09375 1.015625 0.84375 C 1.210938 0.601562 1.316406 0.335938 1.328125 0.046875 C 1.140625 0.046875 0.988281 -0.00390625 0.875 -0.109375 C 0.769531 -0.222656 0.71875 -0.363281 0.71875 -0.53125 C 0.71875 -0.695312 0.769531 -0.832031 0.875 -0.9375 C 0.976562 -1.050781 1.117188 -1.109375 1.296875 -1.109375 C 1.484375 -1.109375 1.632812 -1.039062 1.75 -0.90625 C 1.875 -0.78125 1.9375 -0.570312 1.9375 -0.28125 C 1.9375 0.226562 1.828125 0.65625 1.609375 1 C 1.390625 1.34375 1.066406 1.660156 0.640625 1.953125 Z M 0.3125 1.484375 "/></g></g></g><g fill="#f4f2f1" fill-opacity="1"><g transform="translate(202.096993, 276.566027)"><g/></g></g><g fill="#f4f2f1" fill-opacity="1"><g transform="translate(204.547208, 276.566027)"><g><path d="M 1.859375 0 L 1.078125 0 L 1.078125 -7.140625 L 2.328125 -7.140625 L 4.484375 -1.09375 L 4.59375 -1.09375 L 6.75 -7.140625 L 7.953125 -7.140625 L 7.953125 0 L 7.15625 0 L 7.15625 -5.828125 L 7.03125 -5.84375 L 4.921875 0 L 4.09375 0 L 1.984375 -5.84375 L 1.859375 -5.828125 Z M 1.859375 0 "/></g></g></g><g fill="#f4f2f1" fill-opacity="1"><g transform="translate(213.581768, 276.566027)"><g><path d="M 2.21875 0.109375 C 1.6875 0.109375 1.269531 -0.03125 0.96875 -0.3125 C 0.675781 -0.59375 0.53125 -0.988281 0.53125 -1.5 C 0.53125 -1.820312 0.59375 -2.09375 0.71875 -2.3125 C 0.851562 -2.53125 1.0625 -2.707031 1.34375 -2.84375 C 1.625 -2.976562 1.984375 -3.085938 2.421875 -3.171875 C 2.816406 -3.234375 3.113281 -3.300781 3.3125 -3.375 C 3.519531 -3.457031 3.65625 -3.550781 3.71875 -3.65625 C 3.789062 -3.757812 3.828125 -3.882812 3.828125 -4.03125 C 3.828125 -4.28125 3.742188 -4.46875 3.578125 -4.59375 C 3.410156 -4.726562 3.144531 -4.796875 2.78125 -4.796875 C 2.425781 -4.796875 2.125 -4.726562 1.875 -4.59375 C 1.625 -4.457031 1.394531 -4.253906 1.1875 -3.984375 L 1.09375 -3.984375 L 0.703125 -4.546875 C 0.929688 -4.828125 1.21875 -5.050781 1.5625 -5.21875 C 1.914062 -5.394531 2.320312 -5.484375 2.78125 -5.484375 C 3.40625 -5.484375 3.867188 -5.34375 4.171875 -5.0625 C 4.472656 -4.789062 4.625 -4.410156 4.625 -3.921875 L 4.625 -1.0625 C 4.625 -0.757812 4.753906 -0.609375 5.015625 -0.609375 C 5.097656 -0.609375 5.175781 -0.625 5.25 -0.65625 L 5.328125 -0.640625 L 5.421875 -0.078125 C 5.359375 -0.046875 5.28125 -0.0195312 5.1875 0 C 5.09375 0.03125 4.992188 0.046875 4.890625 0.046875 C 4.585938 0.046875 4.359375 -0.0195312 4.203125 -0.15625 C 4.054688 -0.289062 3.960938 -0.484375 3.921875 -0.734375 L 3.828125 -0.75 C 3.671875 -0.457031 3.460938 -0.238281 3.203125 -0.09375 C 2.941406 0.0390625 2.613281 0.109375 2.21875 0.109375 Z M 2.390625 -0.53125 C 2.691406 -0.53125 2.953125 -0.597656 3.171875 -0.734375 C 3.390625 -0.878906 3.554688 -1.078125 3.671875 -1.328125 C 3.796875 -1.578125 3.859375 -1.863281 3.859375 -2.1875 L 3.859375 -2.875 L 3.765625 -2.890625 C 3.640625 -2.804688 3.488281 -2.734375 3.3125 -2.671875 C 3.144531 -2.617188 2.910156 -2.570312 2.609375 -2.53125 C 2.296875 -2.488281 2.046875 -2.421875 1.859375 -2.328125 C 1.671875 -2.242188 1.535156 -2.132812 1.453125 -2 C 1.378906 -1.863281 1.34375 -1.695312 1.34375 -1.5 C 1.34375 -1.1875 1.4375 -0.945312 1.625 -0.78125 C 1.8125 -0.613281 2.066406 -0.53125 2.390625 -0.53125 Z M 2.390625 -0.53125 "/></g></g></g><g fill="#f4f2f1" fill-opacity="1"><g transform="translate(219.150886, 276.566027)"><g><path d="M 0.9375 0 L 0.9375 -5.390625 L 1.6875 -5.390625 L 1.6875 -4.546875 L 1.796875 -4.515625 C 1.972656 -4.828125 2.203125 -5.066406 2.484375 -5.234375 C 2.765625 -5.398438 3.101562 -5.484375 3.5 -5.484375 C 4.144531 -5.484375 4.613281 -5.316406 4.90625 -4.984375 C 5.195312 -4.660156 5.34375 -4.15625 5.34375 -3.46875 L 5.34375 0 L 4.546875 0 L 4.546875 -3.453125 C 4.546875 -3.773438 4.503906 -4.035156 4.421875 -4.234375 C 4.335938 -4.429688 4.207031 -4.570312 4.03125 -4.65625 C 3.863281 -4.75 3.640625 -4.796875 3.359375 -4.796875 C 2.867188 -4.796875 2.472656 -4.632812 2.171875 -4.3125 C 1.878906 -3.988281 1.734375 -3.472656 1.734375 -2.765625 L 1.734375 0 Z M 0.9375 0 "/></g></g></g><g fill="#f4f2f1" fill-opacity="1"><g transform="translate(225.349635, 276.566027)"><g><path d="M 2.21875 0.109375 C 1.6875 0.109375 1.269531 -0.03125 0.96875 -0.3125 C 0.675781 -0.59375 0.53125 -0.988281 0.53125 -1.5 C 0.53125 -1.820312 0.59375 -2.09375 0.71875 -2.3125 C 0.851562 -2.53125 1.0625 -2.707031 1.34375 -2.84375 C 1.625 -2.976562 1.984375 -3.085938 2.421875 -3.171875 C 2.816406 -3.234375 3.113281 -3.300781 3.3125 -3.375 C 3.519531 -3.457031 3.65625 -3.550781 3.71875 -3.65625 C 3.789062 -3.757812 3.828125 -3.882812 3.828125 -4.03125 C 3.828125 -4.28125 3.742188 -4.46875 3.578125 -4.59375 C 3.410156 -4.726562 3.144531 -4.796875 2.78125 -4.796875 C 2.425781 -4.796875 2.125 -4.726562 1.875 -4.59375 C 1.625 -4.457031 1.394531 -4.253906 1.1875 -3.984375 L 1.09375 -3.984375 L 0.703125 -4.546875 C 0.929688 -4.828125 1.21875 -5.050781 1.5625 -5.21875 C 1.914062 -5.394531 2.320312 -5.484375 2.78125 -5.484375 C 3.40625 -5.484375 3.867188 -5.34375 4.171875 -5.0625 C 4.472656 -4.789062 4.625 -4.410156 4.625 -3.921875 L 4.625 -1.0625 C 4.625 -0.757812 4.753906 -0.609375 5.015625 -0.609375 C 5.097656 -0.609375 5.175781 -0.625 5.25 -0.65625 L 5.328125 -0.640625 L 5.421875 -0.078125 C 5.359375 -0.046875 5.28125 -0.0195312 5.1875 0 C 5.09375 0.03125 4.992188 0.046875 4.890625 0.046875 C 4.585938 0.046875 4.359375 -0.0195312 4.203125 -0.15625 C 4.054688 -0.289062 3.960938 -0.484375 3.921875 -0.734375 L 3.828125 -0.75 C 3.671875 -0.457031 3.460938 -0.238281 3.203125 -0.09375 C 2.941406 0.0390625 2.613281 0.109375 2.21875 0.109375 Z M 2.390625 -0.53125 C 2.691406 -0.53125 2.953125 -0.597656 3.171875 -0.734375 C 3.390625 -0.878906 3.554688 -1.078125 3.671875 -1.328125 C 3.796875 -1.578125 3.859375 -1.863281 3.859375 -2.1875 L 3.859375 -2.875 L 3.765625 -2.890625 C 3.640625 -2.804688 3.488281 -2.734375 3.3125 -2.671875 C 3.144531 -2.617188 2.910156 -2.570312 2.609375 -2.53125 C 2.296875 -2.488281 2.046875 -2.421875 1.859375 -2.328125 C 1.671875 -2.242188 1.535156 -2.132812 1.453125 -2 C 1.378906 -1.863281 1.34375 -1.695312 1.34375 -1.5 C 1.34375 -1.1875 1.4375 -0.945312 1.625 -0.78125 C 1.8125 -0.613281 2.066406 -0.53125 2.390625 -0.53125 Z M 2.390625 -0.53125 "/></g></g></g><g fill="#f4f2f1" fill-opacity="1"><g transform="translate(230.918753, 276.566027)"><g><path d="M 2.78125 2.28125 C 1.925781 2.28125 1.300781 2.140625 0.90625 1.859375 C 0.519531 1.578125 0.328125 1.203125 0.328125 0.734375 C 0.328125 0.429688 0.414062 0.1875 0.59375 0 C 0.78125 -0.175781 1.046875 -0.300781 1.390625 -0.375 L 1.390625 -0.484375 C 1.222656 -0.578125 1.097656 -0.6875 1.015625 -0.8125 C 0.941406 -0.9375 0.90625 -1.085938 0.90625 -1.265625 C 0.90625 -1.472656 0.96875 -1.640625 1.09375 -1.765625 C 1.226562 -1.898438 1.425781 -2.003906 1.6875 -2.078125 L 1.6875 -2.171875 C 1.101562 -2.484375 0.8125 -2.988281 0.8125 -3.6875 C 0.8125 -4.03125 0.890625 -4.335938 1.046875 -4.609375 C 1.203125 -4.890625 1.425781 -5.101562 1.71875 -5.25 C 2.019531 -5.40625 2.367188 -5.484375 2.765625 -5.484375 C 3.210938 -5.484375 3.585938 -5.382812 3.890625 -5.1875 C 4.003906 -5.3125 4.085938 -5.445312 4.140625 -5.59375 C 4.203125 -5.738281 4.242188 -5.90625 4.265625 -6.09375 L 4.359375 -6.15625 L 5.015625 -6 C 4.984375 -5.726562 4.898438 -5.492188 4.765625 -5.296875 C 4.640625 -5.109375 4.457031 -4.953125 4.21875 -4.828125 L 4.21875 -4.734375 C 4.382812 -4.597656 4.507812 -4.4375 4.59375 -4.25 C 4.675781 -4.0625 4.71875 -3.847656 4.71875 -3.609375 C 4.71875 -3.265625 4.632812 -2.957031 4.46875 -2.6875 C 4.3125 -2.425781 4.082031 -2.21875 3.78125 -2.0625 C 3.488281 -1.90625 3.148438 -1.828125 2.765625 -1.828125 C 2.722656 -1.828125 2.640625 -1.832031 2.515625 -1.84375 C 2.390625 -1.84375 2.296875 -1.84375 2.234375 -1.84375 C 2.066406 -1.84375 1.929688 -1.796875 1.828125 -1.703125 C 1.722656 -1.617188 1.671875 -1.507812 1.671875 -1.375 C 1.671875 -1.207031 1.722656 -1.082031 1.828125 -1 C 1.941406 -0.925781 2.125 -0.882812 2.375 -0.875 L 3.65625 -0.828125 C 4.207031 -0.804688 4.613281 -0.675781 4.875 -0.4375 C 5.144531 -0.207031 5.28125 0.125 5.28125 0.5625 C 5.28125 0.882812 5.191406 1.175781 5.015625 1.4375 C 4.835938 1.695312 4.5625 1.898438 4.1875 2.046875 C 3.820312 2.203125 3.351562 2.28125 2.78125 2.28125 Z M 2.765625 -2.515625 C 3.140625 -2.515625 3.429688 -2.613281 3.640625 -2.8125 C 3.847656 -3.007812 3.953125 -3.285156 3.953125 -3.640625 C 3.953125 -4.015625 3.847656 -4.300781 3.640625 -4.5 C 3.441406 -4.707031 3.148438 -4.8125 2.765625 -4.8125 C 2.378906 -4.8125 2.082031 -4.707031 1.875 -4.5 C 1.675781 -4.300781 1.578125 -4.015625 1.578125 -3.640625 C 1.578125 -3.273438 1.675781 -2.992188 1.875 -2.796875 C 2.082031 -2.609375 2.378906 -2.515625 2.765625 -2.515625 Z M 2.78125 1.609375 C 3.175781 1.609375 3.5 1.5625 3.75 1.46875 C 4 1.382812 4.175781 1.269531 4.28125 1.125 C 4.394531 0.976562 4.453125 0.816406 4.453125 0.640625 C 4.453125 0.472656 4.421875 0.34375 4.359375 0.25 C 4.304688 0.15625 4.210938 0.0820312 4.078125 0.03125 C 3.941406 -0.0195312 3.757812 -0.0507812 3.53125 -0.0625 L 2.328125 -0.125 L 2.15625 -0.125 C 1.476562 -0.113281 1.140625 0.148438 1.140625 0.671875 C 1.140625 1.296875 1.6875 1.609375 2.78125 1.609375 Z M 2.78125 1.609375 "/></g></g></g><g fill="#f4f2f1" fill-opacity="1"><g transform="translate(236.434176, 276.566027)"><g><path d="M 5.125 -2.515625 L 1.4375 -2.515625 C 1.457031 -1.859375 1.613281 -1.375 1.90625 -1.0625 C 2.195312 -0.757812 2.59375 -0.609375 3.09375 -0.609375 C 3.476562 -0.609375 3.785156 -0.675781 4.015625 -0.8125 C 4.253906 -0.945312 4.441406 -1.160156 4.578125 -1.453125 L 4.6875 -1.453125 L 5.203125 -1.15625 C 5.046875 -0.757812 4.796875 -0.445312 4.453125 -0.21875 C 4.109375 0 3.65625 0.109375 3.09375 0.109375 C 2.570312 0.109375 2.125 0.00390625 1.75 -0.203125 C 1.382812 -0.410156 1.097656 -0.722656 0.890625 -1.140625 C 0.691406 -1.554688 0.59375 -2.070312 0.59375 -2.6875 C 0.59375 -3.300781 0.695312 -3.816406 0.90625 -4.234375 C 1.125 -4.660156 1.414062 -4.972656 1.78125 -5.171875 C 2.15625 -5.378906 2.578125 -5.484375 3.046875 -5.484375 C 3.742188 -5.484375 4.285156 -5.289062 4.671875 -4.90625 C 5.054688 -4.519531 5.25 -3.941406 5.25 -3.171875 C 5.25 -2.867188 5.242188 -2.664062 5.234375 -2.5625 Z M 4.46875 -3.171875 C 4.457031 -3.742188 4.328125 -4.160156 4.078125 -4.421875 C 3.835938 -4.679688 3.492188 -4.8125 3.046875 -4.8125 C 2.578125 -4.8125 2.207031 -4.679688 1.9375 -4.421875 C 1.664062 -4.160156 1.503906 -3.742188 1.453125 -3.171875 Z M 4.46875 -3.171875 "/></g></g></g><g fill="#f4f2f1" fill-opacity="1"><g transform="translate(242.17412, 276.566027)"><g/></g></g><g fill="#f4f2f1" fill-opacity="1"><g transform="translate(244.624334, 276.566027)"><g><path d="M 1.078125 2.28125 C 0.898438 2.28125 0.726562 2.265625 0.5625 2.234375 C 0.40625 2.203125 0.269531 2.160156 0.15625 2.109375 L 0.3125 1.484375 L 0.390625 1.453125 C 0.472656 1.492188 0.570312 1.523438 0.6875 1.546875 C 0.800781 1.578125 0.921875 1.59375 1.046875 1.59375 C 1.265625 1.59375 1.445312 1.5625 1.59375 1.5 C 1.738281 1.445312 1.859375 1.351562 1.953125 1.21875 C 2.054688 1.082031 2.15625 0.894531 2.25 0.65625 L 2.4375 0.125 L 0.28125 -5.390625 L 1.140625 -5.390625 L 2.828125 -0.984375 L 2.921875 -0.984375 L 4.5625 -5.390625 L 5.375 -5.390625 L 2.96875 0.84375 C 2.832031 1.1875 2.675781 1.460938 2.5 1.671875 C 2.332031 1.890625 2.132812 2.046875 1.90625 2.140625 C 1.675781 2.234375 1.398438 2.28125 1.078125 2.28125 Z M 1.078125 2.28125 "/></g></g></g><g fill="#f4f2f1" fill-opacity="1"><g transform="translate(250.300832, 276.566027)"><g><path d="M 3.09375 0.109375 C 2.582031 0.109375 2.140625 0 1.765625 -0.21875 C 1.390625 -0.4375 1.097656 -0.753906 0.890625 -1.171875 C 0.691406 -1.585938 0.59375 -2.09375 0.59375 -2.6875 C 0.59375 -3.28125 0.691406 -3.785156 0.890625 -4.203125 C 1.097656 -4.628906 1.390625 -4.945312 1.765625 -5.15625 C 2.140625 -5.375 2.582031 -5.484375 3.09375 -5.484375 C 3.601562 -5.484375 4.046875 -5.375 4.421875 -5.15625 C 4.796875 -4.945312 5.082031 -4.628906 5.28125 -4.203125 C 5.488281 -3.785156 5.59375 -3.28125 5.59375 -2.6875 C 5.59375 -2.09375 5.488281 -1.585938 5.28125 -1.171875 C 5.082031 -0.753906 4.796875 -0.4375 4.421875 -0.21875 C 4.046875 0 3.601562 0.109375 3.09375 0.109375 Z M 3.09375 -0.609375 C 3.625 -0.609375 4.03125 -0.773438 4.3125 -1.109375 C 4.601562 -1.453125 4.75 -1.976562 4.75 -2.6875 C 4.75 -3.40625 4.601562 -3.929688 4.3125 -4.265625 C 4.03125 -4.609375 3.625 -4.78125 3.09375 -4.78125 C 2.550781 -4.78125 2.132812 -4.609375 1.84375 -4.265625 C 1.5625 -3.921875 1.421875 -3.394531 1.421875 -2.6875 C 1.421875 -1.976562 1.5625 -1.453125 1.84375 -1.109375 C 2.132812 -0.773438 2.550781 -0.609375 3.09375 -0.609375 Z M 3.09375 -0.609375 "/></g></g></g><g fill="#f4f2f1" fill-opacity="1"><g transform="translate(256.480058, 276.566027)"><g><path d="M 2.65625 0.109375 C 2.050781 0.109375 1.597656 -0.0507812 1.296875 -0.375 C 1.003906 -0.695312 0.859375 -1.171875 0.859375 -1.796875 L 0.859375 -5.390625 L 1.65625 -5.390625 L 1.65625 -1.8125 C 1.65625 -1 2.035156 -0.59375 2.796875 -0.59375 C 3.285156 -0.59375 3.671875 -0.75 3.953125 -1.0625 C 4.242188 -1.382812 4.390625 -1.90625 4.390625 -2.625 L 4.390625 -5.390625 L 5.1875 -5.390625 L 5.1875 0 L 4.421875 0 L 4.421875 -0.84375 L 4.328125 -0.875 C 4.140625 -0.539062 3.914062 -0.289062 3.65625 -0.125 C 3.394531 0.03125 3.0625 0.109375 2.65625 0.109375 Z M 2.65625 0.109375 "/></g></g></g><g fill="#f4f2f1" fill-opacity="1"><g transform="translate(262.595837, 276.566027)"><g><path d="M 0.9375 0 L 0.9375 -5.390625 L 1.6875 -5.390625 L 1.6875 -4.546875 L 1.796875 -4.515625 C 2.046875 -5.128906 2.519531 -5.4375 3.21875 -5.4375 C 3.582031 -5.4375 3.851562 -5.367188 4.03125 -5.234375 L 3.828125 -4.5625 L 3.734375 -4.546875 C 3.535156 -4.640625 3.316406 -4.6875 3.078125 -4.6875 C 2.640625 -4.6875 2.304688 -4.523438 2.078125 -4.203125 C 1.847656 -3.878906 1.734375 -3.359375 1.734375 -2.640625 L 1.734375 0 Z M 0.9375 0 "/></g></g></g><g fill="#f4f2f1" fill-opacity="1"><g transform="translate(266.754368, 276.566027)"><g/></g></g><g fill="#f4f2f1" fill-opacity="1"><g transform="translate(269.204582, 276.566027)"><g><path d="M 2.140625 0.109375 C 1.765625 0.109375 1.46875 0 1.25 -0.21875 C 1.03125 -0.4375 0.921875 -0.757812 0.921875 -1.1875 L 0.921875 -7.546875 L 1.71875 -7.546875 L 1.71875 -1.25 C 1.71875 -1.019531 1.757812 -0.851562 1.84375 -0.75 C 1.925781 -0.65625 2.0625 -0.609375 2.25 -0.609375 C 2.351562 -0.609375 2.460938 -0.628906 2.578125 -0.671875 L 2.65625 -0.640625 L 2.75 -0.015625 C 2.6875 0.0234375 2.597656 0.0546875 2.484375 0.078125 C 2.378906 0.0976562 2.265625 0.109375 2.140625 0.109375 Z M 2.140625 0.109375 "/></g></g></g><g fill="#f4f2f1" fill-opacity="1"><g transform="translate(272.133125, 276.566027)"><g><path d="M 1.34375 -6.421875 C 1.164062 -6.421875 1.023438 -6.472656 0.921875 -6.578125 C 0.816406 -6.691406 0.765625 -6.828125 0.765625 -6.984375 C 0.765625 -7.148438 0.816406 -7.285156 0.921875 -7.390625 C 1.023438 -7.492188 1.164062 -7.546875 1.34375 -7.546875 C 1.507812 -7.546875 1.644531 -7.492188 1.75 -7.390625 C 1.851562 -7.285156 1.90625 -7.148438 1.90625 -6.984375 C 1.90625 -6.828125 1.851562 -6.691406 1.75 -6.578125 C 1.644531 -6.472656 1.507812 -6.421875 1.34375 -6.421875 Z M 0.9375 0 L 0.9375 -5.390625 L 1.734375 -5.390625 L 1.734375 0 Z M 0.9375 0 "/></g></g></g><g fill="#f4f2f1" fill-opacity="1"><g transform="translate(274.802986, 276.566027)"><g><path d="M 1.203125 0 L 1.203125 -4.734375 L 0.265625 -4.734375 L 0.265625 -5.390625 L 1.203125 -5.390625 C 1.140625 -5.628906 1.109375 -5.851562 1.109375 -6.0625 C 1.109375 -6.40625 1.179688 -6.695312 1.328125 -6.9375 C 1.484375 -7.175781 1.691406 -7.351562 1.953125 -7.46875 C 2.210938 -7.59375 2.515625 -7.65625 2.859375 -7.65625 C 3.398438 -7.65625 3.816406 -7.539062 4.109375 -7.3125 L 3.796875 -6.75 L 3.6875 -6.71875 C 3.476562 -6.894531 3.203125 -6.984375 2.859375 -6.984375 C 2.546875 -6.984375 2.304688 -6.898438 2.140625 -6.734375 C 1.984375 -6.566406 1.90625 -6.335938 1.90625 -6.046875 C 1.90625 -5.859375 1.9375 -5.640625 2 -5.390625 L 3.71875 -5.390625 L 3.71875 -4.734375 L 2 -4.734375 L 2 0 Z M 1.203125 0 "/></g></g></g><g fill="#f4f2f1" fill-opacity="1"><g transform="translate(278.639377, 276.566027)"><g><path d="M 5.125 -2.515625 L 1.4375 -2.515625 C 1.457031 -1.859375 1.613281 -1.375 1.90625 -1.0625 C 2.195312 -0.757812 2.59375 -0.609375 3.09375 -0.609375 C 3.476562 -0.609375 3.785156 -0.675781 4.015625 -0.8125 C 4.253906 -0.945312 4.441406 -1.160156 4.578125 -1.453125 L 4.6875 -1.453125 L 5.203125 -1.15625 C 5.046875 -0.757812 4.796875 -0.445312 4.453125 -0.21875 C 4.109375 0 3.65625 0.109375 3.09375 0.109375 C 2.570312 0.109375 2.125 0.00390625 1.75 -0.203125 C 1.382812 -0.410156 1.097656 -0.722656 0.890625 -1.140625 C 0.691406 -1.554688 0.59375 -2.070312 0.59375 -2.6875 C 0.59375 -3.300781 0.695312 -3.816406 0.90625 -4.234375 C 1.125 -4.660156 1.414062 -4.972656 1.78125 -5.171875 C 2.15625 -5.378906 2.578125 -5.484375 3.046875 -5.484375 C 3.742188 -5.484375 4.285156 -5.289062 4.671875 -4.90625 C 5.054688 -4.519531 5.25 -3.941406 5.25 -3.171875 C 5.25 -2.867188 5.242188 -2.664062 5.234375 -2.5625 Z M 4.46875 -3.171875 C 4.457031 -3.742188 4.328125 -4.160156 4.078125 -4.421875 C 3.835938 -4.679688 3.492188 -4.8125 3.046875 -4.8125 C 2.578125 -4.8125 2.207031 -4.679688 1.9375 -4.421875 C 1.664062 -4.160156 1.503906 -3.742188 1.453125 -3.171875 Z M 4.46875 -3.171875 "/></g></g></g><g fill="#f4f2f1" fill-opacity="1"><g transform="translate(284.379321, 276.566027)"><g><path d="M 1.953125 -2.375 L 1.140625 -2.375 L 1.140625 -7.140625 L 1.953125 -7.140625 Z M 1.53125 0.046875 C 1.351562 0.046875 1.207031 -0.00390625 1.09375 -0.109375 C 0.988281 -0.210938 0.9375 -0.347656 0.9375 -0.515625 C 0.9375 -0.691406 0.988281 -0.832031 1.09375 -0.9375 C 1.207031 -1.050781 1.351562 -1.109375 1.53125 -1.109375 C 1.726562 -1.109375 1.878906 -1.054688 1.984375 -0.953125 C 2.085938 -0.847656 2.140625 -0.707031 2.140625 -0.53125 C 2.140625 -0.363281 2.082031 -0.222656 1.96875 -0.109375 C 1.863281 -0.00390625 1.71875 0.046875 1.53125 0.046875 Z M 1.53125 0.046875 "/></g></g></g></svg>