<svg xmlns="http://www.w3.org/2000/svg" xmlns:xlink="http://www.w3.org/1999/xlink" width="500" zoomAndPan="magnify" viewBox="0 0 375 374.999991" height="500" preserveAspectRatio="xMidYMid meet" version="1.0"><defs><clipPath id="09d20905c4"><path d="M 101.777344 75.285156 L 221 75.285156 L 221 263 L 101.777344 263 Z M 101.777344 75.285156 " clip-rule="nonzero"/></clipPath><clipPath id="0951476062"><path d="M 219 165 L 279 165 L 279 226 L 219 226 Z M 219 165 " clip-rule="nonzero"/></clipPath><clipPath id="77f9468f45"><path d="M 270.621094 159.015625 L 284.953125 217.277344 L 226.691406 231.609375 L 212.359375 173.34375 Z M 270.621094 159.015625 " clip-rule="nonzero"/></clipPath><clipPath id="d8db2c1c05"><path d="M 270.621094 159.015625 L 284.953125 217.277344 L 226.691406 231.609375 L 212.359375 173.34375 Z M 270.621094 159.015625 " clip-rule="nonzero"/></clipPath><clipPath id="b4f6c3a4ba"><path d="M 233.097656 98 L 242 98 L 242 121 L 233.097656 121 Z M 233.097656 98 " clip-rule="nonzero"/></clipPath><clipPath id="325af26a8d"><path d="M 233.097656 75.285156 L 264.597656 75.285156 L 264.597656 143.535156 L 233.097656 143.535156 Z M 233.097656 75.285156 " clip-rule="nonzero"/></clipPath></defs><g clip-path="url(#09d20905c4)"><path fill="#1800ad" d="M 203.898438 75.433594 L 118.726562 75.433594 C 109.359375 75.433594 101.691406 83.101562 101.691406 92.464844 L 101.691406 245.773438 C 101.691406 255.136719 109.359375 262.804688 118.726562 262.804688 L 153.242188 262.804688 L 144.503906 254.0625 C 138.871094 248.449219 135.769531 240.957031 135.769531 232.988281 C 135.769531 225.027344 138.871094 217.539062 144.503906 211.910156 C 150.132812 206.28125 157.617188 203.1875 165.578125 203.1875 C 170.070312 203.1875 174.410156 204.167969 178.351562 206.039062 L 178.351562 164.859375 C 178.351562 148.425781 191.730469 135.054688 208.164062 135.054688 L 220.929688 135.054688 L 220.929688 92.464844 C 220.929688 83.101562 213.261719 75.433594 203.898438 75.433594 Z M 169.828125 109.503906 L 152.792969 109.503906 C 148.085938 109.503906 144.277344 105.691406 144.277344 100.984375 C 144.277344 96.277344 148.085938 92.464844 152.792969 92.464844 L 169.828125 92.464844 C 174.535156 92.464844 178.34375 96.277344 178.34375 100.984375 C 178.34375 105.691406 174.535156 109.503906 169.828125 109.503906 Z M 169.828125 109.503906 " fill-opacity="1" fill-rule="nonzero"/></g><path fill="#1800ad" d="M 220.941406 200.816406 L 261.953125 212.625 C 268.722656 214.59375 273.148438 221.824219 271.785156 228.710938 L 261.621094 279.839844 L 194.367188 279.839844 L 156.546875 242.019531 C 151.554688 237.039062 151.554688 228.945312 156.546875 223.953125 C 161.527344 218.972656 169.628906 218.972656 174.609375 223.953125 L 195.386719 244.730469 L 195.386719 164.859375 C 195.386719 157.808594 201.109375 152.085938 208.164062 152.085938 C 215.214844 152.085938 220.9375 157.808594 220.9375 164.859375 L 220.9375 200.816406 Z M 220.941406 200.816406 " fill-opacity="1" fill-rule="nonzero"/><g clip-path="url(#0951476062)"><g clip-path="url(#77f9468f45)"><g clip-path="url(#d8db2c1c05)"><path fill="#cb6ce6" d="M 254.011719 218.582031 C 254.292969 218.523438 254.675781 218.652344 254.863281 218.871094 L 258.660156 223.328125 C 258.847656 223.546875 259.214844 223.636719 259.480469 223.523438 L 264.59375 221.023438 C 264.84375 220.882812 265.007812 220.535156 264.957031 220.25 L 263.910156 214.378906 C 263.859375 214.09375 263.996094 213.710938 264.214844 213.523438 L 265.464844 212.378906 C 265.675781 212.179688 266.070312 212.085938 266.34375 212.167969 L 271.984375 213.875 C 272.257812 213.960938 272.621094 213.835938 272.785156 213.597656 L 275.828125 208.679688 C 275.964844 208.425781 275.917969 208.046875 275.722656 207.835938 L 271.695312 203.492188 C 271.496094 203.28125 271.40625 202.882812 271.492188 202.609375 L 271.929688 201.058594 C 272 200.78125 272.285156 200.488281 272.5625 200.410156 L 278.277344 198.785156 C 278.554688 198.707031 278.792969 198.40625 278.808594 198.117188 L 278.773438 192.351562 C 278.753906 192.0625 278.511719 191.769531 278.230469 191.699219 L 272.53125 190.230469 C 272.253906 190.160156 272 189.984375 271.964844 189.84375 L 271.933594 189.714844 C 271.742188 188.929688 271.410156 187.914062 271.410156 187.914062 C 271.320312 187.640625 271.402344 187.242188 271.59375 187.023438 L 275.539062 182.546875 C 275.730469 182.332031 275.769531 181.949219 275.628906 181.699219 L 272.59375 176.925781 C 272.425781 176.691406 272.066406 176.574219 271.792969 176.667969 L 266.242188 178.5 C 265.96875 178.59375 265.574219 178.503906 265.363281 178.304688 L 263.8125 176.933594 C 263.589844 176.75 263.445312 176.367188 263.488281 176.082031 L 264.386719 170.179688 C 264.433594 169.894531 264.257812 169.550781 264.003906 169.414062 L 259.046875 167.097656 C 258.777344 166.988281 258.410156 167.082031 258.230469 167.308594 L 254.570312 171.828125 C 254.390625 172.054688 254.011719 172.191406 253.726562 172.136719 L 251.277344 171.753906 C 250.988281 171.71875 250.660156 171.476562 250.542969 171.214844 L 248.117188 165.785156 C 248 165.519531 247.667969 165.324219 247.382812 165.351562 C 247.382812 165.351562 243.75 165.652344 241.664062 166.167969 L 241.65625 166.167969 C 241.640625 166.171875 241.605469 166.410156 241.574219 166.695312 L 240.941406 172.476562 C 240.910156 172.761719 240.667969 173.082031 240.398438 173.191406 L 237.8125 174.355469 C 237.554688 174.484375 237.144531 174.460938 236.90625 174.304688 L 231.960938 171.066406 C 231.71875 170.90625 231.335938 170.925781 231.109375 171.101562 L 227.234375 174.484375 C 227.027344 174.6875 226.960938 175.0625 227.089844 175.320312 L 229.695312 180.542969 C 229.824219 180.800781 229.792969 181.207031 229.628906 181.445312 L 228.011719 184.003906 C 227.867188 184.253906 227.515625 184.457031 227.226562 184.453125 L 221.359375 184.40625 C 221.070312 184.402344 220.761719 184.625 220.667969 184.898438 L 219.296875 189.8125 C 219.234375 190.09375 219.386719 190.445312 219.632812 190.59375 L 224.679688 193.597656 C 224.925781 193.746094 225.125 194.105469 225.117188 194.390625 L 225.183594 197.394531 C 225.203125 197.683594 225.019531 198.042969 224.777344 198.199219 L 219.847656 201.304688 C 219.605469 201.457031 219.453125 201.816406 219.515625 202.097656 C 219.515625 202.097656 219.546875 202.246094 219.628906 202.578125 C 220.050781 204.296875 221.113281 207.023438 221.113281 207.023438 C 221.21875 207.289062 221.539062 207.503906 221.828125 207.492188 L 227.738281 207.292969 C 228.027344 207.28125 228.390625 207.472656 228.542969 207.71875 L 230.109375 209.988281 C 230.285156 210.21875 230.324219 210.621094 230.203125 210.882812 L 227.742188 216.148438 C 227.621094 216.410156 227.695312 216.78125 227.910156 216.972656 L 232.054688 220.332031 C 232.289062 220.5 232.671875 220.503906 232.910156 220.339844 L 237.808594 216.953125 C 238.046875 216.789062 238.453125 216.753906 238.714844 216.871094 L 240.90625 217.777344 C 241.175781 217.878906 241.429688 218.195312 241.46875 218.480469 L 242.25 224.253906 C 242.285156 224.539062 242.550781 224.8125 242.835938 224.859375 L 248.324219 225.460938 C 248.613281 225.476562 248.941406 225.273438 249.050781 225.007812 L 251.347656 219.492188 C 251.457031 219.226562 251.78125 218.972656 252.066406 218.933594 Z M 231.695312 199.53125 C 229.382812 190.125 235.132812 180.625 244.539062 178.3125 C 253.945312 175.996094 263.445312 181.746094 265.757812 191.152344 C 268.070312 200.558594 262.324219 210.058594 252.917969 212.375 C 243.511719 214.6875 234.007812 208.9375 231.695312 199.53125 Z M 231.695312 199.53125 " fill-opacity="1" fill-rule="nonzero"/></g></g></g><g clip-path="url(#b4f6c3a4ba)"><path fill="#38b6ff" d="M 241.585938 109.519531 C 241.585938 104.164062 237.90625 99.8125 233.050781 98.472656 L 233.050781 120.488281 C 237.90625 119.230469 241.585938 114.878906 241.585938 109.519531 Z M 241.585938 109.519531 " fill-opacity="1" fill-rule="nonzero"/></g><g clip-path="url(#325af26a8d)"><path fill="#38b6ff" d="M 258.578125 107.09375 L 264.4375 104.082031 L 262.597656 97.132812 L 255.984375 97.382812 C 255.316406 95.878906 254.476562 94.539062 253.558594 93.199219 L 257.074219 87.675781 L 251.96875 82.566406 L 246.441406 86.082031 C 245.101562 85.164062 243.679688 84.324219 242.257812 83.65625 L 242.507812 77.128906 L 235.5625 75.285156 L 232.964844 80.308594 L 232.964844 92.695312 C 241.085938 94.035156 247.28125 101.066406 247.28125 109.605469 C 247.28125 118.058594 241.085938 125.089844 232.964844 126.429688 L 232.964844 138.816406 L 235.5625 143.839844 L 242.507812 142 L 242.257812 135.386719 C 243.765625 134.714844 245.101562 133.878906 246.441406 132.957031 L 251.96875 136.472656 L 257.074219 131.367188 L 253.558594 125.84375 C 254.476562 124.503906 255.316406 123.082031 255.984375 121.660156 L 262.515625 121.910156 L 264.355469 114.960938 L 258.496094 111.949219 C 258.664062 110.359375 258.664062 108.769531 258.578125 107.09375 Z M 258.578125 107.09375 " fill-opacity="1" fill-rule="nonzero"/></g></svg>